<svg version="1.1" xmlns="http://www.w3.org/2000/svg" xmlns:xlink="http://www.w3.org/1999/xlink" width="1652" height="950"><defs/><g><g transform="translate(-62,-398) scale(1,1)"><path fill="#C0C0C0" stroke="none" d="M 231 496 C 231 486.6111584 246.4461744 479 265.5 479 C 284.5538256 479 300 486.6111584 300 496 C 300 505.3888416 284.5538256 513 265.5 513 C 246.4461744 513 231 505.3888416 231 496 Z" opacity="0.2"/></g><g transform="translate(-62,-398) scale(1,1)"><path fill="#ffffff" stroke="none" d="M 224 489 C 224 479.6111584 239.4461744 472 258.5 472 C 277.5538256 472 293 479.6111584 293 489 C 293 498.3888416 277.5538256 506 258.5 506 C 239.4461744 506 224 498.3888416 224 489 Z"/></g><g transform="translate(-62,-398) scale(1,1)"><path fill="none" stroke="#000000" d="M 224 489 C 224 479.6111584 239.4461744 472 258.5 472 C 277.5538256 472 293 479.6111584 293 489 C 293 498.3888416 277.5538256 506 258.5 506 C 239.4461744 506 224 498.3888416 224 489 Z" stroke-miterlimit="10"/></g><g transform="translate(-62,-398) scale(1,1)"><g><path fill="none" stroke="none"/><text fill="#000000" stroke="none" font-family="Arial" font-size="13px" font-style="normal" font-weight="bold" text-decoration="none" x="244.77001953125" y="496">Chat</text></g></g><g transform="translate(-62,-398) scale(1,1)"><path fill="#C0C0C0" stroke="none" d="M 1095 576 C 1095 566.6111584 1121.1913392 559 1153.5 559 C 1185.8086608 559 1212 566.6111584 1212 576 C 1212 585.3888416 1185.8086608 593 1153.5 593 C 1121.1913392 593 1095 585.3888416 1095 576 Z" opacity="0.2"/></g><g transform="translate(-62,-398) scale(1,1)"><path fill="#ffffff" stroke="none" d="M 1088 569 C 1088 559.6111584 1114.1913392 552 1146.5 552 C 1178.8086608 552 1205 559.6111584 1205 569 C 1205 578.3888416 1178.8086608 586 1146.5 586 C 1114.1913392 586 1088 578.3888416 1088 569 Z"/></g><g transform="translate(-62,-398) scale(1,1)"><path fill="none" stroke="#000000" d="M 1088 569 C 1088 559.6111584 1114.1913392 552 1146.5 552 C 1178.8086608 552 1205 559.6111584 1205 569 C 1205 578.3888416 1178.8086608 586 1146.5 586 C 1114.1913392 586 1088 578.3888416 1088 569 Z" stroke-miterlimit="10"/></g><g transform="translate(-62,-398) scale(1,1)"><g><path fill="none" stroke="none"/><text fill="#000000" stroke="none" font-family="Arial" font-size="13px" font-style="normal" font-weight="bold" text-decoration="none" x="1112.298828125" y="576">View Profile</text></g></g><g transform="translate(-62,-398) scale(1,1)"><path fill="#C0C0C0" stroke="none" d="M 1295 536 C 1295 526.6111584 1325.6684912 519 1363.5 519 C 1401.3315088 519 1432 526.6111584 1432 536 C 1432 545.3888416 1401.3315088 553 1363.5 553 C 1325.6684912 553 1295 545.3888416 1295 536 Z" opacity="0.2"/></g><g transform="translate(-62,-398) scale(1,1)"><path fill="#ffffff" stroke="none" d="M 1288 529 C 1288 519.6111584 1318.6684912 512 1356.5 512 C 1394.3315088 512 1425 519.6111584 1425 529 C 1425 538.3888416 1394.3315088 546 1356.5 546 C 1318.6684912 546 1288 538.3888416 1288 529 Z"/></g><g transform="translate(-62,-398) scale(1,1)"><path fill="none" stroke="#000000" d="M 1288 529 C 1288 519.6111584 1318.6684912 512 1356.5 512 C 1394.3315088 512 1425 519.6111584 1425 529 C 1425 538.3888416 1394.3315088 546 1356.5 546 C 1318.6684912 546 1288 538.3888416 1288 529 Z" stroke-miterlimit="10"/></g><g transform="translate(-62,-398) scale(1,1)"><g><path fill="none" stroke="none"/><text fill="#000000" stroke="none" font-family="Arial" font-size="13px" font-style="normal" font-weight="bold" text-decoration="none" x="1315.31005859375" y="536">Update Profile</text></g></g><g transform="translate(-62,-398) scale(1,1)"><path fill="#C0C0C0" stroke="none" d="M 1327 624 C 1327 614.6111584 1364.3842192 607 1410.5 607 C 1456.6157808 607 1494 614.6111584 1494 624 C 1494 633.3888416 1456.6157808 641 1410.5 641 C 1364.3842192 641 1327 633.3888416 1327 624 Z" opacity="0.2"/></g><g transform="translate(-62,-398) scale(1,1)"><path fill="#ffffff" stroke="none" d="M 1320 617 C 1320 607.6111584 1357.3842192 600 1403.5 600 C 1449.6157808 600 1487 607.6111584 1487 617 C 1487 626.3888416 1449.6157808 634 1403.5 634 C 1357.3842192 634 1320 626.3888416 1320 617 Z"/></g><g transform="translate(-62,-398) scale(1,1)"><path fill="none" stroke="#000000" d="M 1320 617 C 1320 607.6111584 1357.3842192 600 1403.5 600 C 1449.6157808 600 1487 607.6111584 1487 617 C 1487 626.3888416 1449.6157808 634 1403.5 634 C 1357.3842192 634 1320 626.3888416 1320 617 Z" stroke-miterlimit="10"/></g><g transform="translate(-62,-398) scale(1,1)"><g><path fill="none" stroke="none"/><text fill="#000000" stroke="none" font-family="Arial" font-size="13px" font-style="normal" font-weight="bold" text-decoration="none" x="1352.195068359375" y="624">Update Password</text></g></g><g transform="translate(-62,-398) scale(1,1)"><path fill="#ffffff" stroke="none" d="M 544.4093503196023 530.6800000000001 C 544.4093503196023 525.8861679360001 548.2951926445477 522 553.088623046875 522 C 557.8820534492023 522 561.7678957741477 525.8861679360001 561.7678957741477 530.6800000000001 C 561.7678957741477 535.473832064 557.8820534492023 539.36 553.088623046875 539.36 C 548.2951926445477 539.36 544.4093503196023 535.473832064 544.4093503196023 530.6800000000001 Z"/></g><g transform="translate(-62,-398) scale(1,1)"><path fill="none" stroke="#000000" d="M 544.4093503196023 530.6800000000001 C 544.4093503196023 525.8861679360001 548.2951926445477 522 553.088623046875 522 C 557.8820534492023 522 561.7678957741477 525.8861679360001 561.7678957741477 530.6800000000001 C 561.7678957741477 535.473832064 557.8820534492023 539.36 553.088623046875 539.36 C 548.2951926445477 539.36 544.4093503196023 535.473832064 544.4093503196023 530.6800000000001 Z" stroke-miterlimit="10"/></g><g transform="translate(-62,-398) scale(1,1)"><path fill="none" stroke="#000000" d="M 553.088623046875 539.36 L 553.088623046875 556.64" stroke-miterlimit="10"/></g><g transform="translate(-62,-398) scale(1,1)"><path fill="none" stroke="#000000" d="M 543.8988048650568 545.84 L 562.2784412286932 545.84" stroke-miterlimit="10"/></g><g transform="translate(-62,-398) scale(1,1)"><path fill="none" stroke="#000000" d="M 553.088623046875 556.64 L 540.3249866832386 574" stroke-miterlimit="10"/></g><g transform="translate(-62,-398) scale(1,1)"><path fill="none" stroke="#000000" d="M 553.088623046875 556.64 L 565.8522594105114 574" stroke-miterlimit="10"/></g><g transform="translate(-62,-398) scale(1,1)"><g><path fill="none" stroke="none"/><text fill="#000000" stroke="none" font-family="Arial" font-size="13px" font-style="normal" font-weight="bold" text-decoration="none" x="539.364990234375" y="594.5">User</text></g></g><g transform="translate(-62,-398) scale(1,1)"><path fill="#C0C0C0" stroke="none" d="M 1007 1008 C 1007 998.6111584 1046.6227952 991 1095.5 991 C 1144.3772048 991 1184 998.6111584 1184 1008 C 1184 1017.3888416 1144.3772048 1025 1095.5 1025 C 1046.6227952 1025 1007 1017.3888416 1007 1008 Z" opacity="0.2"/></g><g transform="translate(-62,-398) scale(1,1)"><path fill="#ffffff" stroke="none" d="M 1000 1001 C 1000 991.6111584 1039.6227952 984 1088.5 984 C 1137.3772048 984 1177 991.6111584 1177 1001 C 1177 1010.3888416 1137.3772048 1018 1088.5 1018 C 1039.6227952 1018 1000 1010.3888416 1000 1001 Z"/></g><g transform="translate(-62,-398) scale(1,1)"><path fill="none" stroke="#000000" d="M 1000 1001 C 1000 991.6111584 1039.6227952 984 1088.5 984 C 1137.3772048 984 1177 991.6111584 1177 1001 C 1177 1010.3888416 1137.3772048 1018 1088.5 1018 C 1039.6227952 1018 1000 1010.3888416 1000 1001 Z" stroke-miterlimit="10"/></g><g transform="translate(-62,-398) scale(1,1)"><g><path fill="none" stroke="none"/><text fill="#000000" stroke="none" font-family="Arial" font-size="13px" font-style="normal" font-weight="bold" text-decoration="none" x="1046.119873046875" y="1008">CRUD Trainee</text></g></g><g transform="translate(-62,-398) scale(1,1)"><path fill="#C0C0C0" stroke="none" d="M 631 776 C 631 766.6111584 671.7420832 759 722 759 C 772.2579168 759 813 766.6111584 813 776 C 813 785.3888416 772.2579168 793 722 793 C 671.7420832 793 631 785.3888416 631 776 Z" opacity="0.2"/></g><g transform="translate(-62,-398) scale(1,1)"><path fill="#ffffff" stroke="none" d="M 624 769 C 624 759.6111584 664.7420832 752 715 752 C 765.2579168 752 806 759.6111584 806 769 C 806 778.3888416 765.2579168 786 715 786 C 664.7420832 786 624 778.3888416 624 769 Z"/></g><g transform="translate(-62,-398) scale(1,1)"><path fill="none" stroke="#000000" d="M 624 769 C 624 759.6111584 664.7420832 752 715 752 C 765.2579168 752 806 759.6111584 806 769 C 806 778.3888416 765.2579168 786 715 786 C 664.7420832 786 624 778.3888416 624 769 Z" stroke-miterlimit="10"/></g><g transform="translate(-62,-398) scale(1,1)"><g><path fill="none" stroke="none"/><text fill="#000000" stroke="none" font-family="Arial" font-size="13px" font-style="normal" font-weight="bold" text-decoration="none" x="670.57275390625" y="776">CRUD Lecturer</text></g></g><g transform="translate(-62,-398) scale(1,1)"><path fill="#C0C0C0" stroke="none" d="M 623 1008 C 623 998.6111584 659.2649312 991 704 991 C 748.7350688 991 785 998.6111584 785 1008 C 785 1017.3888416 748.7350688 1025 704 1025 C 659.2649312 1025 623 1017.3888416 623 1008 Z" opacity="0.2"/></g><g transform="translate(-62,-398) scale(1,1)"><path fill="#ffffff" stroke="none" d="M 616 1001 C 616 991.6111584 652.2649312 984 697 984 C 741.7350688 984 778 991.6111584 778 1001 C 778 1010.3888416 741.7350688 1018 697 1018 C 652.2649312 1018 616 1010.3888416 616 1001 Z"/></g><g transform="translate(-62,-398) scale(1,1)"><path fill="none" stroke="#000000" d="M 616 1001 C 616 991.6111584 652.2649312 984 697 984 C 741.7350688 984 778 991.6111584 778 1001 C 778 1010.3888416 741.7350688 1018 697 1018 C 652.2649312 1018 616 1010.3888416 616 1001 Z" stroke-miterlimit="10"/></g><g transform="translate(-62,-398) scale(1,1)"><g><path fill="none" stroke="none"/><text fill="#000000" stroke="none" font-family="Arial" font-size="13px" font-style="normal" font-weight="bold" text-decoration="none" x="658.7109375" y="1008">CRUD Intake</text></g></g><g transform="translate(-62,-398) scale(1,1)"><path fill="#C0C0C0" stroke="none" d="M 631 888 C 631 878.6111584 670.17508 871 718.5 871 C 766.82492 871 806 878.6111584 806 888 C 806 897.3888416 766.82492 905 718.5 905 C 670.17508 905 631 897.3888416 631 888 Z" opacity="0.2"/></g><g transform="translate(-62,-398) scale(1,1)"><path fill="#ffffff" stroke="none" d="M 624 881 C 624 871.6111584 663.17508 864 711.5 864 C 759.82492 864 799 871.6111584 799 881 C 799 890.3888416 759.82492 898 711.5 898 C 663.17508 898 624 890.3888416 624 881 Z"/></g><g transform="translate(-62,-398) scale(1,1)"><path fill="none" stroke="#000000" d="M 624 881 C 624 871.6111584 663.17508 864 711.5 864 C 759.82492 864 799 871.6111584 799 881 C 799 890.3888416 759.82492 898 711.5 898 C 663.17508 898 624 890.3888416 624 881 Z" stroke-miterlimit="10"/></g><g transform="translate(-62,-398) scale(1,1)"><g><path fill="none" stroke="none"/><text fill="#000000" stroke="none" font-family="Arial" font-size="13px" font-style="normal" font-weight="bold" text-decoration="none" x="669.2373046875" y="888">CRUD Subject</text></g></g><g transform="translate(-62,-398) scale(1,1)"><path fill="#C0C0C0" stroke="none" d="M 1007 1104 C 1007 1094.6111584 1060.725824 1087 1127 1087 C 1193.274176 1087 1247 1094.6111584 1247 1104 C 1247 1113.3888416 1193.274176 1121 1127 1121 C 1060.725824 1121 1007 1113.3888416 1007 1104 Z" opacity="0.2"/></g><g transform="translate(-62,-398) scale(1,1)"><path fill="#ffffff" stroke="none" d="M 1000 1097 C 1000 1087.6111584 1053.725824 1080 1120 1080 C 1186.274176 1080 1240 1087.6111584 1240 1097 C 1240 1106.3888416 1186.274176 1114 1120 1114 C 1053.725824 1114 1000 1106.3888416 1000 1097 Z"/></g><g transform="translate(-62,-398) scale(1,1)"><path fill="none" stroke="#000000" d="M 1000 1097 C 1000 1087.6111584 1053.725824 1080 1120 1080 C 1186.274176 1080 1240 1087.6111584 1240 1097 C 1240 1106.3888416 1186.274176 1114 1120 1114 C 1053.725824 1114 1000 1106.3888416 1000 1097 Z" stroke-miterlimit="10"/></g><g transform="translate(-62,-398) scale(1,1)"><g><path fill="none" stroke="none"/><text fill="#000000" stroke="none" font-family="Arial" font-size="13px" font-style="normal" font-weight="bold" text-decoration="none" x="1043.77734375" y="1104">CRUD Education Program</text></g></g><g transform="translate(-62,-398) scale(1,1)"><path fill="#C0C0C0" stroke="none" d="M 383 1160 C 383 1150.6111584 438.0689696 1143 506 1143 C 573.9310304 1143 629 1150.6111584 629 1160 C 629 1169.3888416 573.9310304 1177 506 1177 C 438.0689696 1177 383 1169.3888416 383 1160 Z" opacity="0.2"/></g><g transform="translate(-62,-398) scale(1,1)"><path fill="#ffffff" stroke="none" d="M 376 1153 C 376 1143.6111584 431.0689696 1136 499 1136 C 566.9310304 1136 622 1143.6111584 622 1153 C 622 1162.3888416 566.9310304 1170 499 1170 C 431.0689696 1170 376 1162.3888416 376 1153 Z"/></g><g transform="translate(-62,-398) scale(1,1)"><path fill="none" stroke="#000000" d="M 376 1153 C 376 1143.6111584 431.0689696 1136 499 1136 C 566.9310304 1136 622 1143.6111584 622 1153 C 622 1162.3888416 566.9310304 1170 499 1170 C 431.0689696 1170 376 1162.3888416 376 1153 Z" stroke-miterlimit="10"/></g><g transform="translate(-62,-398) scale(1,1)"><g><path fill="none" stroke="none"/><text fill="#000000" stroke="none" font-family="Arial" font-size="13px" font-style="normal" font-weight="bold" text-decoration="none" x="450.59912109375" y="1160">CRUD Company</text></g></g><g transform="translate(-62,-398) scale(1,1)"><path fill="#C0C0C0" stroke="none" d="M 407 1104 C 407 1094.6111584 460.5019664 1087 526.5 1087 C 592.4980336 1087 646 1094.6111584 646 1104 C 646 1113.3888416 592.4980336 1121 526.5 1121 C 460.5019664 1121 407 1113.3888416 407 1104 Z" opacity="0.2"/></g><g transform="translate(-62,-398) scale(1,1)"><path fill="#ffffff" stroke="none" d="M 400 1097 C 400 1087.6111584 453.5019664 1080 519.5 1080 C 585.4980336 1080 639 1087.6111584 639 1097 C 639 1106.3888416 585.4980336 1114 519.5 1114 C 453.5019664 1114 400 1106.3888416 400 1097 Z"/></g><g transform="translate(-62,-398) scale(1,1)"><path fill="none" stroke="#000000" d="M 400 1097 C 400 1087.6111584 453.5019664 1080 519.5 1080 C 585.4980336 1080 639 1087.6111584 639 1097 C 639 1106.3888416 585.4980336 1114 519.5 1114 C 453.5019664 1114 400 1106.3888416 400 1097 Z" stroke-miterlimit="10"/></g><g transform="translate(-62,-398) scale(1,1)"><g><path fill="none" stroke="none"/><text fill="#000000" stroke="none" font-family="Arial" font-size="13px" font-style="normal" font-weight="bold" text-decoration="none" x="470.385009765625" y="1104">CRUD University</text></g></g><g transform="translate(-62,-398) scale(1,1)"><path fill="#C0C0C0" stroke="none" d="M 791 1232 C 791 1222.6111584 826.817216 1215 871 1215 C 915.182784 1215 951 1222.6111584 951 1232 C 951 1241.3888416 915.182784 1249 871 1249 C 826.817216 1249 791 1241.3888416 791 1232 Z" opacity="0.2"/></g><g transform="translate(-62,-398) scale(1,1)"><path fill="#ffffff" stroke="none" d="M 784 1225 C 784 1215.6111584 819.817216 1208 864 1208 C 908.182784 1208 944 1215.6111584 944 1225 C 944 1234.3888416 908.182784 1242 864 1242 C 819.817216 1242 784 1234.3888416 784 1225 Z"/></g><g transform="translate(-62,-398) scale(1,1)"><path fill="none" stroke="#000000" d="M 784 1225 C 784 1215.6111584 819.817216 1208 864 1208 C 908.182784 1208 944 1215.6111584 944 1225 C 944 1234.3888416 908.182784 1242 864 1242 C 819.817216 1242 784 1234.3888416 784 1225 Z" stroke-miterlimit="10"/></g><g transform="translate(-62,-398) scale(1,1)"><g><path fill="none" stroke="none"/><text fill="#000000" stroke="none" font-family="Arial" font-size="13px" font-style="normal" font-weight="bold" text-decoration="none" x="813.67578125" y="1232">CRUD TimeTable</text></g></g><g transform="translate(-62,-398) scale(1,1)"><path fill="#C0C0C0" stroke="none" d="M 207 560 C 207 550.6111584 229.6096176 543 257.5 543 C 285.3903824 543 308 550.6111584 308 560 C 308 569.3888416 285.3903824 577 257.5 577 C 229.6096176 577 207 569.3888416 207 560 Z" opacity="0.2"/></g><g transform="translate(-62,-398) scale(1,1)"><path fill="#ffffff" stroke="none" d="M 200 553 C 200 543.6111584 222.6096176 536 250.5 536 C 278.3903824 536 301 543.6111584 301 553 C 301 562.3888416 278.3903824 570 250.5 570 C 222.6096176 570 200 562.3888416 200 553 Z"/></g><g transform="translate(-62,-398) scale(1,1)"><path fill="none" stroke="#000000" d="M 200 553 C 200 543.6111584 222.6096176 536 250.5 536 C 278.3903824 536 301 543.6111584 301 553 C 301 562.3888416 278.3903824 570 250.5 570 C 222.6096176 570 200 562.3888416 200 553 Z" stroke-miterlimit="10"/></g><g transform="translate(-62,-398) scale(1,1)"><g><path fill="none" stroke="none"/><text fill="#000000" stroke="none" font-family="Arial" font-size="13px" font-style="normal" font-weight="bold" text-decoration="none" x="234.595947265625" y="560">Login</text></g></g><g transform="translate(-62,-398) scale(1,1)"><path fill="#C0C0C0" stroke="none" d="M 199 616 C 199 606.6111584 221.6096176 599 249.5 599 C 277.3903824 599 300 606.6111584 300 616 C 300 625.3888416 277.3903824 633 249.5 633 C 221.6096176 633 199 625.3888416 199 616 Z" opacity="0.2"/></g><g transform="translate(-62,-398) scale(1,1)"><path fill="#ffffff" stroke="none" d="M 192 609 C 192 599.6111584 214.6096176 592 242.5 592 C 270.3903824 592 293 599.6111584 293 609 C 293 618.3888416 270.3903824 626 242.5 626 C 214.6096176 626 192 618.3888416 192 609 Z"/></g><g transform="translate(-62,-398) scale(1,1)"><path fill="none" stroke="#000000" d="M 192 609 C 192 599.6111584 214.6096176 592 242.5 592 C 270.3903824 592 293 599.6111584 293 609 C 293 618.3888416 270.3903824 626 242.5 626 C 214.6096176 626 192 618.3888416 192 609 Z" stroke-miterlimit="10"/></g><g transform="translate(-62,-398) scale(1,1)"><g><path fill="none" stroke="none"/><text fill="#000000" stroke="none" font-family="Arial" font-size="13px" font-style="normal" font-weight="bold" text-decoration="none" x="222.619140625" y="616">Logout</text></g></g><g transform="translate(-62,-398) scale(1,1)"><path fill="#ffffff" stroke="none" d="M 124.87346164772728 881.6800000000001 C 124.87346164772728 876.8861679360001 128.75930397267274 873 133.552734375 873 C 138.34616477732726 873 142.23200710227272 876.8861679360001 142.23200710227272 881.6800000000001 C 142.23200710227272 886.473832064 138.34616477732726 890.36 133.552734375 890.36 C 128.75930397267274 890.36 124.87346164772728 886.473832064 124.87346164772728 881.6800000000001 Z"/></g><g transform="translate(-62,-398) scale(1,1)"><path fill="none" stroke="#000000" d="M 124.87346164772728 881.6800000000001 C 124.87346164772728 876.8861679360001 128.75930397267274 873 133.552734375 873 C 138.34616477732726 873 142.23200710227272 876.8861679360001 142.23200710227272 881.6800000000001 C 142.23200710227272 886.473832064 138.34616477732726 890.36 133.552734375 890.36 C 128.75930397267274 890.36 124.87346164772728 886.473832064 124.87346164772728 881.6800000000001 Z" stroke-miterlimit="10"/></g><g transform="translate(-62,-398) scale(1,1)"><path fill="none" stroke="#000000" d="M 133.552734375 890.36 L 133.552734375 907.64" stroke-miterlimit="10"/></g><g transform="translate(-62,-398) scale(1,1)"><path fill="none" stroke="#000000" d="M 124.36291619318183 896.84 L 142.74255255681817 896.84" stroke-miterlimit="10"/></g><g transform="translate(-62,-398) scale(1,1)"><path fill="none" stroke="#000000" d="M 133.552734375 907.64 L 120.78909801136365 925" stroke-miterlimit="10"/></g><g transform="translate(-62,-398) scale(1,1)"><path fill="none" stroke="#000000" d="M 133.552734375 907.64 L 146.31637073863635 925" stroke-miterlimit="10"/></g><g transform="translate(-62,-398) scale(1,1)"><g><path fill="none" stroke="none"/><text fill="#000000" stroke="none" font-family="Arial" font-size="13px" font-style="normal" font-weight="bold" text-decoration="none" x="80.806884765625" y="945.5">Supporter - Admin</text></g></g><g transform="translate(-62,-398) scale(1,1)"><path fill="none" stroke="#000000" d="M 196 938 L 344 1000 L 615 1001" stroke-miterlimit="10"/></g><g transform="translate(-62,-398) scale(1,1)"><path fill="none" stroke="#000000" d="M 604.8218611609515 1005.1719887072059 L 615 1001 L 604.8529275011517 996.7530105129496" stroke-miterlimit="10"/></g><g transform="translate(-62,-398) scale(1,1)"><path fill="none" stroke="#000000" d="M 171 952 L 328 1120 L 406 1135" stroke-miterlimit="10"/></g><g transform="translate(-62,-398) scale(1,1)"><path fill="none" stroke="#000000" d="M 395.2252313144974 1137.2145789157112 L 406 1135 L 396.8151442279925 1128.9470317655368" stroke-miterlimit="10"/></g><g transform="translate(-62,-398) scale(1,1)"><path fill="none" stroke="#000000" d="M 184 952 L 344 1080 L 399 1085" stroke-miterlimit="10"/></g><g transform="translate(-62,-398) scale(1,1)"><path fill="none" stroke="#000000" d="M 388.49794931923185 1088.2721447856989 L 399 1085 L 389.2601729802721 1079.8876845142559" stroke-miterlimit="10"/></g><g transform="translate(-62,-398) scale(1,1)"><path fill="none" stroke="#000000" d="M 179 871 L 344 728 L 511 594" stroke-miterlimit="10"/></g><g transform="translate(-62,-398) scale(1,1)"><path fill="#FFFFFF" stroke="none" d="M 500.41602219299784 613.2867678417325 L 511 594 L 489.8781931926812 600.1538018488005"/></g><g transform="translate(-62,-398) scale(1,1)"><path fill="none" stroke="#000000" d="M 500.41602219299784 613.2867678417325 L 511 594 L 489.8781931926812 600.1538018488005 L 500.41602219299784 613.2867678417325" stroke-miterlimit="10"/></g><g transform="translate(-62,-398) scale(1,1)"><path fill="none" stroke="#000000" d="M 511 559 L 302 554" stroke-miterlimit="10"/></g><g transform="translate(-62,-398) scale(1,1)"><path fill="none" stroke="#000000" d="M 312.2604452574601 550.0347429946264 L 302 554 L 312.0590905371905 558.4513703018963" stroke-miterlimit="10"/></g><g transform="translate(-62,-398) scale(1,1)"><path fill="none" stroke="#000000" d="M 511 567 L 294 601" stroke-miterlimit="10"/></g><g transform="translate(-62,-398) scale(1,1)"><path fill="none" stroke="#000000" d="M 303.388576509191 595.2681040544104 L 294 601 L 304.69178860751975 603.5856636231556" stroke-miterlimit="10"/></g><g transform="translate(-62,-398) scale(1,1)"><path fill="#ffffff" stroke="none" d="M 836.0116452414773 481.68 C 836.0116452414773 476.886167936 839.8974875664227 473 844.69091796875 473 C 849.4843483710773 473 853.3701906960227 476.886167936 853.3701906960227 481.68 C 853.3701906960227 486.473832064 849.4843483710773 490.36 844.69091796875 490.36 C 839.8974875664227 490.36 836.0116452414773 486.473832064 836.0116452414773 481.68 Z"/></g><g transform="translate(-62,-398) scale(1,1)"><path fill="none" stroke="#000000" d="M 836.0116452414773 481.68 C 836.0116452414773 476.886167936 839.8974875664227 473 844.69091796875 473 C 849.4843483710773 473 853.3701906960227 476.886167936 853.3701906960227 481.68 C 853.3701906960227 486.473832064 849.4843483710773 490.36 844.69091796875 490.36 C 839.8974875664227 490.36 836.0116452414773 486.473832064 836.0116452414773 481.68 Z" stroke-miterlimit="10"/></g><g transform="translate(-62,-398) scale(1,1)"><path fill="none" stroke="#000000" d="M 844.69091796875 490.36 L 844.69091796875 507.64" stroke-miterlimit="10"/></g><g transform="translate(-62,-398) scale(1,1)"><path fill="none" stroke="#000000" d="M 835.5010997869318 496.84 L 853.8807361505682 496.84" stroke-miterlimit="10"/></g><g transform="translate(-62,-398) scale(1,1)"><path fill="none" stroke="#000000" d="M 844.69091796875 507.64 L 831.9272816051136 525" stroke-miterlimit="10"/></g><g transform="translate(-62,-398) scale(1,1)"><path fill="none" stroke="#000000" d="M 844.69091796875 507.64 L 857.4545543323864 525" stroke-miterlimit="10"/></g><g transform="translate(-62,-398) scale(1,1)"><g><path fill="none" stroke="none"/><text fill="#000000" stroke="none" font-family="Arial" font-size="13px" font-style="normal" font-weight="bold" text-decoration="none" x="822.89306640625" y="545.5">Trainee</text></g></g><g transform="translate(-62,-398) scale(1,1)"><path fill="#C0C0C0" stroke="none" d="M 1095 440 C 1095 430.6111584 1131.7126464 423 1177 423 C 1222.2873536 423 1259 430.6111584 1259 440 C 1259 449.3888416 1222.2873536 457 1177 457 C 1131.7126464 457 1095 449.3888416 1095 440 Z" opacity="0.2"/></g><g transform="translate(-62,-398) scale(1,1)"><path fill="#ffffff" stroke="none" d="M 1088 433 C 1088 423.6111584 1124.7126464 416 1170 416 C 1215.2873536 416 1252 423.6111584 1252 433 C 1252 442.3888416 1215.2873536 450 1170 450 C 1124.7126464 450 1088 442.3888416 1088 433 Z"/></g><g transform="translate(-62,-398) scale(1,1)"><path fill="none" stroke="#000000" d="M 1088 433 C 1088 423.6111584 1124.7126464 416 1170 416 C 1215.2873536 416 1252 423.6111584 1252 433 C 1252 442.3888416 1215.2873536 450 1170 450 C 1124.7126464 450 1088 442.3888416 1088 433 Z" stroke-miterlimit="10"/></g><g transform="translate(-62,-398) scale(1,1)"><g><path fill="none" stroke="none"/><text fill="#000000" stroke="none" font-family="Arial" font-size="13px" font-style="normal" font-weight="bold" text-decoration="none" x="1132.54248046875" y="440">View Subject</text></g></g><g transform="translate(-62,-398) scale(1,1)"><path fill="#C0C0C0" stroke="none" d="M 1103 512 C 1103 502.6111584 1134.5639216 495 1173.5 495 C 1212.4360784 495 1244 502.6111584 1244 512 C 1244 521.3888416 1212.4360784 529 1173.5 529 C 1134.5639216 529 1103 521.3888416 1103 512 Z" opacity="0.2"/></g><g transform="translate(-62,-398) scale(1,1)"><path fill="#ffffff" stroke="none" d="M 1096 505 C 1096 495.6111584 1127.5639216 488 1166.5 488 C 1205.4360784 488 1237 495.6111584 1237 505 C 1237 514.3888416 1205.4360784 522 1166.5 522 C 1127.5639216 522 1096 514.3888416 1096 505 Z"/></g><g transform="translate(-62,-398) scale(1,1)"><path fill="none" stroke="#000000" d="M 1096 505 C 1096 495.6111584 1127.5639216 488 1166.5 488 C 1205.4360784 488 1237 495.6111584 1237 505 C 1237 514.3888416 1205.4360784 522 1166.5 522 C 1127.5639216 522 1096 514.3888416 1096 505 Z" stroke-miterlimit="10"/></g><g transform="translate(-62,-398) scale(1,1)"><g><path fill="none" stroke="none"/><text fill="#000000" stroke="none" font-family="Arial" font-size="13px" font-style="normal" font-weight="bold" text-decoration="none" x="1123.618408203125" y="512">View Schedule</text></g></g><g transform="translate(-62,-398) scale(1,1)"><path fill="#C0C0C0" stroke="none" d="M 1575 432 C 1575 422.6111584 1605.4446336 415 1643 415 C 1680.5553664 415 1711 422.6111584 1711 432 C 1711 441.3888416 1680.5553664 449 1643 449 C 1605.4446336 449 1575 441.3888416 1575 432 Z" opacity="0.2"/></g><g transform="translate(-62,-398) scale(1,1)"><path fill="#ffffff" stroke="none" d="M 1568 425 C 1568 415.6111584 1598.4446336 408 1636 408 C 1673.5553664 408 1704 415.6111584 1704 425 C 1704 434.3888416 1673.5553664 442 1636 442 C 1598.4446336 442 1568 434.3888416 1568 425 Z"/></g><g transform="translate(-62,-398) scale(1,1)"><path fill="none" stroke="#000000" d="M 1568 425 C 1568 415.6111584 1598.4446336 408 1636 408 C 1673.5553664 408 1704 415.6111584 1704 425 C 1704 434.3888416 1673.5553664 442 1636 442 C 1598.4446336 442 1568 434.3888416 1568 425 Z" stroke-miterlimit="10"/></g><g transform="translate(-62,-398) scale(1,1)"><g><path fill="none" stroke="none"/><text fill="#000000" stroke="none" font-family="Arial" font-size="13px" font-style="normal" font-weight="bold" text-decoration="none" x="1595.8955078125" y="432">Enroll Subject</text></g></g><g transform="translate(-62,-398) scale(1,1)"><path fill="none" stroke="#000000" d="M 874 487 L 944 432 L 1087 433" stroke-miterlimit="10"/></g><g transform="translate(-62,-398) scale(1,1)"><path fill="none" stroke="#000000" d="M 1076.8081371542107 437.13834891383294 L 1087 433 L 1076.867010088932 428.7195192487065" stroke-miterlimit="10"/></g><g transform="translate(-62,-398) scale(1,1)"><path fill="none" stroke="#000000" d="M 874 509 L 960 504 L 1095 505" stroke-miterlimit="10"/></g><g transform="translate(-62,-398) scale(1,1)"><path fill="none" stroke="#000000" d="M 1084.806423184704 509.13412526547785 L 1095 505 L 1084.8687846998644 500.7153207188523" stroke-miterlimit="10"/></g><g transform="translate(-62,-398) scale(1,1)"><path fill="none" stroke="#000000" d="M 815 516 L 595 553" stroke-miterlimit="10"/></g><g transform="translate(-62,-398) scale(1,1)"><path fill="#FFFFFF" stroke="none" d="M 613.6475360306093 541.3265514955037 L 595 553 L 616.4401737770256 557.9314245823031"/></g><g transform="translate(-62,-398) scale(1,1)"><path fill="none" stroke="#000000" d="M 613.6475360306093 541.3265514955037 L 595 553 L 616.4401737770256 557.9314245823031 L 613.6475360306093 541.3265514955037" stroke-miterlimit="10"/></g><g transform="translate(-62,-398) scale(1,1)"><path fill="#C0C0C0" stroke="none" d="M 1359 432 C 1359 422.6111584 1390.1162064 415 1428.5 415 C 1466.8837936 415 1498 422.6111584 1498 432 C 1498 441.3888416 1466.8837936 449 1428.5 449 C 1390.1162064 449 1359 441.3888416 1359 432 Z" opacity="0.2"/></g><g transform="translate(-62,-398) scale(1,1)"><path fill="#ffffff" stroke="none" d="M 1352 425 C 1352 415.6111584 1383.1162064 408 1421.5 408 C 1459.8837936 408 1491 415.6111584 1491 425 C 1491 434.3888416 1459.8837936 442 1421.5 442 C 1383.1162064 442 1352 434.3888416 1352 425 Z"/></g><g transform="translate(-62,-398) scale(1,1)"><path fill="none" stroke="#000000" d="M 1352 425 C 1352 415.6111584 1383.1162064 408 1421.5 408 C 1459.8837936 408 1491 415.6111584 1491 425 C 1491 434.3888416 1459.8837936 442 1421.5 442 C 1383.1162064 442 1352 434.3888416 1352 425 Z" stroke-miterlimit="10"/></g><g transform="translate(-62,-398) scale(1,1)"><g><path fill="none" stroke="none"/><text fill="#000000" stroke="none" font-family="Arial" font-size="13px" font-style="normal" font-weight="bold" text-decoration="none" x="1379.70703125" y="432">View a subject</text></g></g><g transform="translate(-62,-398) scale(1,1)"><path fill="none" stroke="#000000" d="M 1351 427 L 1253 430" stroke-miterlimit="10" stroke-dasharray="3"/></g><g transform="translate(-62,-398) scale(1,1)"><path fill="none" stroke="#000000" d="M 1263.02911398039 425.48149662295754 L 1253 430 L 1263.2867188835476 433.8965901261056" stroke-miterlimit="10"/></g><g transform="translate(-62,-398) scale(1,1)"><g><path fill="none" stroke="none"/><text fill="#000000" stroke="none" font-family="Arial" font-size="13px" font-style="normal" font-weight="normal" text-decoration="none" x="1295.5" y="443.5">«extend»</text></g></g><g transform="translate(-62,-398) scale(1,1)"><path fill="none" stroke="#000000" d="M 1492 425 L 1567 425" stroke-miterlimit="10" stroke-dasharray="3"/></g><g transform="translate(-62,-398) scale(1,1)"><path fill="none" stroke="#000000" d="M 1556.837325142376 429.209517756016 L 1567 425 L 1556.837325142376 420.790482243984" stroke-miterlimit="10"/></g><g transform="translate(-62,-398) scale(1,1)"><g><path fill="none" stroke="none"/><text fill="#000000" stroke="none" font-family="Arial" font-size="13px" font-style="normal" font-weight="normal" text-decoration="none" x="1519.5" y="420.5">«include»</text></g></g><g transform="translate(-62,-398) scale(1,1)"><path fill="none" stroke="#000000" d="M 999 1001 L 779 1001" stroke-miterlimit="10" stroke-dasharray="3"/></g><g transform="translate(-62,-398) scale(1,1)"><path fill="none" stroke="#000000" d="M 789.1626748576241 996.790482243984 L 779 1001 L 789.1626748576241 1005.209517756016" stroke-miterlimit="10"/></g><g transform="translate(-62,-398) scale(1,1)"><g><path fill="none" stroke="none"/><text fill="#000000" stroke="none" font-family="Arial" font-size="13px" font-style="normal" font-weight="normal" text-decoration="none" x="949.5" y="996.5">«extend»</text></g></g><g transform="translate(-62,-398) scale(1,1)"><path fill="none" stroke="#000000" d="M 194 871 L 338 776 L 623 771" stroke-miterlimit="10"/></g><g transform="translate(-62,-398) scale(1,1)"><path fill="none" stroke="#000000" d="M 612.9127285772089 775.387135197705 L 623 771 L 612.7650489249958 766.9693950215545" stroke-miterlimit="10"/></g><g transform="translate(-62,-398) scale(1,1)"><path fill="#C0C0C0" stroke="none" d="M 895 1176 C 895 1166.6111584 930.817216 1159 975 1159 C 1019.182784 1159 1055 1166.6111584 1055 1176 C 1055 1185.3888416 1019.182784 1193 975 1193 C 930.817216 1193 895 1185.3888416 895 1176 Z" opacity="0.2"/></g><g transform="translate(-62,-398) scale(1,1)"><path fill="#ffffff" stroke="none" d="M 888 1169 C 888 1159.6111584 923.817216 1152 968 1152 C 1012.182784 1152 1048 1159.6111584 1048 1169 C 1048 1178.3888416 1012.182784 1186 968 1186 C 923.817216 1186 888 1178.3888416 888 1169 Z"/></g><g transform="translate(-62,-398) scale(1,1)"><path fill="none" stroke="#000000" d="M 888 1169 C 888 1159.6111584 923.817216 1152 968 1152 C 1012.182784 1152 1048 1159.6111584 1048 1169 C 1048 1178.3888416 1012.182784 1186 968 1186 C 923.817216 1186 888 1178.3888416 888 1169 Z" stroke-miterlimit="10"/></g><g transform="translate(-62,-398) scale(1,1)"><g><path fill="none" stroke="none"/><text fill="#000000" stroke="none" font-family="Arial" font-size="13px" font-style="normal" font-weight="bold" text-decoration="none" x="918.28515625" y="1176">CRUD Worktrack</text></g></g><g transform="translate(-62,-398) scale(1,1)"><path fill="none" stroke="#000000" d="M 999 1081 L 864 1064 L 745 1019" stroke-miterlimit="10" stroke-dasharray="3"/></g><g transform="translate(-62,-398) scale(1,1)"><path fill="none" stroke="#000000" d="M 755.9946573080041 1018.6572016926058 L 745 1019 L 753.0167917470496 1026.5320017315742" stroke-miterlimit="10"/></g><g transform="translate(-62,-398) scale(1,1)"><g><path fill="none" stroke="none"/><text fill="#000000" stroke="none" font-family="Arial" font-size="13px" font-style="normal" font-weight="normal" text-decoration="none" x="883.5" y="1048.5">«extend»</text></g></g><g transform="translate(-62,-398) scale(1,1)"><path fill="#C0C0C0" stroke="none" d="M 719 1272 C 719 1262.6111584 745.862912 1255 779 1255 C 812.137088 1255 839 1262.6111584 839 1272 C 839 1281.3888416 812.137088 1289 779 1289 C 745.862912 1289 719 1281.3888416 719 1272 Z" opacity="0.2"/></g><g transform="translate(-62,-398) scale(1,1)"><path fill="#ffffff" stroke="none" d="M 712 1265 C 712 1255.6111584 738.862912 1248 772 1248 C 805.137088 1248 832 1255.6111584 832 1265 C 832 1274.3888416 805.137088 1282 772 1282 C 738.862912 1282 712 1274.3888416 712 1265 Z"/></g><g transform="translate(-62,-398) scale(1,1)"><path fill="none" stroke="#000000" d="M 712 1265 C 712 1255.6111584 738.862912 1248 772 1248 C 805.137088 1248 832 1255.6111584 832 1265 C 832 1274.3888416 805.137088 1282 772 1282 C 738.862912 1282 712 1274.3888416 712 1265 Z" stroke-miterlimit="10"/></g><g transform="translate(-62,-398) scale(1,1)"><g><path fill="none" stroke="none"/><text fill="#000000" stroke="none" font-family="Arial" font-size="13px" font-style="normal" font-weight="bold" text-decoration="none" x="735.16455078125" y="1272">CRUD Class</text></g></g><g transform="translate(-62,-398) scale(1,1)"><path fill="#C0C0C0" stroke="none" d="M 391 1224 C 391 1214.6111584 418.5344848 1207 452.5 1207 C 486.4655152 1207 514 1214.6111584 514 1224 C 514 1233.3888416 486.4655152 1241 452.5 1241 C 418.5344848 1241 391 1233.3888416 391 1224 Z" opacity="0.2"/></g><g transform="translate(-62,-398) scale(1,1)"><path fill="#ffffff" stroke="none" d="M 384 1217 C 384 1207.6111584 411.5344848 1200 445.5 1200 C 479.4655152 1200 507 1207.6111584 507 1217 C 507 1226.3888416 479.4655152 1234 445.5 1234 C 411.5344848 1234 384 1226.3888416 384 1217 Z"/></g><g transform="translate(-62,-398) scale(1,1)"><path fill="none" stroke="#000000" d="M 384 1217 C 384 1207.6111584 411.5344848 1200 445.5 1200 C 479.4655152 1200 507 1207.6111584 507 1217 C 507 1226.3888416 479.4655152 1234 445.5 1234 C 411.5344848 1234 384 1226.3888416 384 1217 Z" stroke-miterlimit="10"/></g><g transform="translate(-62,-398) scale(1,1)"><g><path fill="none" stroke="none"/><text fill="#000000" stroke="none" font-family="Arial" font-size="13px" font-style="normal" font-weight="bold" text-decoration="none" x="407.5791015625" y="1224">CRUD Room</text></g></g><g transform="translate(-62,-398) scale(1,1)"><path fill="none" stroke="#000000" d="M 939 1151 L 726 1019" stroke-miterlimit="10" stroke-dasharray="3"/></g><g transform="translate(-62,-398) scale(1,1)"><path fill="none" stroke="#000000" d="M 736.8558080927312 1020.7752269302241 L 726 1019 L 732.4209405171235 1027.9314905181366" stroke-miterlimit="10"/></g><g transform="translate(-62,-398) scale(1,1)"><g><path fill="none" stroke="none"/><text fill="#000000" stroke="none" font-family="Arial" font-size="13px" font-style="normal" font-weight="normal" text-decoration="none" x="789.5" y="1116.5">«extend»</text></g></g><g transform="translate(-62,-398) scale(1,1)"><path fill="none" stroke="#000000" d="M 851 1207 L 710 1019" stroke-miterlimit="10" stroke-dasharray="3"/></g><g transform="translate(-62,-398) scale(1,1)"><path fill="none" stroke="#000000" d="M 719.4652191193873 1024.6044292324898 L 710 1019 L 712.7299907097618 1029.6558505397088" stroke-miterlimit="10"/></g><g transform="translate(-62,-398) scale(1,1)"><g><path fill="none" stroke="none"/><text fill="#000000" stroke="none" font-family="Arial" font-size="13px" font-style="normal" font-weight="normal" text-decoration="none" x="728.5" y="1136.5">«extend»</text></g></g><g transform="translate(-62,-398) scale(1,1)"><path fill="none" stroke="#000000" d="M 767 1247 L 702 1019" stroke-miterlimit="10" stroke-dasharray="3"/></g><g transform="translate(-62,-398) scale(1,1)"><path fill="none" stroke="#000000" d="M 708.8344610506055 1027.6191729387313 L 702 1019 L 700.738018121442 1029.927369387835" stroke-miterlimit="10"/></g><g transform="translate(-62,-398) scale(1,1)"><g><path fill="none" stroke="none"/><text fill="#000000" stroke="none" font-family="Arial" font-size="13px" font-style="normal" font-weight="normal" text-decoration="none" x="678.5" y="1147.5">«extend»</text></g></g><g transform="translate(-62,-398) scale(1,1)"><path fill="none" stroke="#000000" d="M 163 952 L 336 1184 L 386 1199" stroke-miterlimit="10"/></g><g transform="translate(-62,-398) scale(1,1)"><path fill="none" stroke="#000000" d="M 375.05632686676626 1200.1117636227807 L 386 1199 L 377.4755189196566 1192.0477901131462" stroke-miterlimit="10"/></g><g transform="translate(-62,-398) scale(1,1)"><path fill="none" stroke="#000000" d="M 196 904 L 328 888 L 623 883" stroke-miterlimit="10"/></g><g transform="translate(-62,-398) scale(1,1)"><path fill="none" stroke="#000000" d="M 612.910122075527 887.3811372346954 L 623 883 L 612.7674470502988 878.9633107462228" stroke-miterlimit="10"/></g><g transform="translate(-62,-398) scale(1,1)"><path fill="none" stroke="#000000" d="M 511 550 L 294 498" stroke-miterlimit="10"/></g><g transform="translate(-62,-398) scale(1,1)"><path fill="none" stroke="#000000" d="M 304.863842742592 496.27462442806484 L 294 498 L 302.90192164004003 504.4618721060221" stroke-miterlimit="10"/></g><g transform="translate(-62,-398) scale(1,1)"><path fill="none" stroke="#000000" d="M 1287 542 L 1206 558" stroke-miterlimit="10" stroke-dasharray="3"/></g><g transform="translate(-62,-398) scale(1,1)"><path fill="none" stroke="#000000" d="M 1215.1542812047762 551.9008905876448 L 1206 558 L 1216.785775941461 560.1603326921108" stroke-miterlimit="10"/></g><g transform="translate(-62,-398) scale(1,1)"><g><path fill="none" stroke="none"/><text fill="#000000" stroke="none" font-family="Arial" font-size="13px" font-style="normal" font-weight="normal" text-decoration="none" x="1245.5" y="574.5">«extend»</text></g></g><g transform="translate(-62,-398) scale(1,1)"><path fill="none" stroke="#000000" d="M 1319 601 L 1206 580" stroke-miterlimit="10" stroke-dasharray="3"/></g><g transform="translate(-62,-398) scale(1,1)"><path fill="none" stroke="#000000" d="M 1216.7607314585168 577.7181896490531 L 1206 580 L 1215.2224697573808 585.9955026123084" stroke-miterlimit="10"/></g><g transform="translate(-62,-398) scale(1,1)"><g><path fill="none" stroke="none"/><text fill="#000000" stroke="none" font-family="Arial" font-size="13px" font-style="normal" font-weight="normal" text-decoration="none" x="1229.5" y="625.5">«extend»</text></g></g><g transform="translate(-62,-398) scale(1,1)"><path fill="#ffffff" stroke="none" d="M 844.0116452414773 601.6800000000001 C 844.0116452414773 596.8861679360001 847.8974875664227 593 852.69091796875 593 C 857.4843483710773 593 861.3701906960227 596.8861679360001 861.3701906960227 601.6800000000001 C 861.3701906960227 606.473832064 857.4843483710773 610.36 852.69091796875 610.36 C 847.8974875664227 610.36 844.0116452414773 606.473832064 844.0116452414773 601.6800000000001 Z"/></g><g transform="translate(-62,-398) scale(1,1)"><path fill="none" stroke="#000000" d="M 844.0116452414773 601.6800000000001 C 844.0116452414773 596.8861679360001 847.8974875664227 593 852.69091796875 593 C 857.4843483710773 593 861.3701906960227 596.8861679360001 861.3701906960227 601.6800000000001 C 861.3701906960227 606.473832064 857.4843483710773 610.36 852.69091796875 610.36 C 847.8974875664227 610.36 844.0116452414773 606.473832064 844.0116452414773 601.6800000000001 Z" stroke-miterlimit="10"/></g><g transform="translate(-62,-398) scale(1,1)"><path fill="none" stroke="#000000" d="M 852.69091796875 610.36 L 852.69091796875 627.64" stroke-miterlimit="10"/></g><g transform="translate(-62,-398) scale(1,1)"><path fill="none" stroke="#000000" d="M 843.5010997869318 616.84 L 861.8807361505682 616.84" stroke-miterlimit="10"/></g><g transform="translate(-62,-398) scale(1,1)"><path fill="none" stroke="#000000" d="M 852.69091796875 627.64 L 839.9272816051136 645" stroke-miterlimit="10"/></g><g transform="translate(-62,-398) scale(1,1)"><path fill="none" stroke="#000000" d="M 852.69091796875 627.64 L 865.4545543323864 645" stroke-miterlimit="10"/></g><g transform="translate(-62,-398) scale(1,1)"><g><path fill="none" stroke="none"/><text fill="#000000" stroke="none" font-family="Arial" font-size="13px" font-style="normal" font-weight="bold" text-decoration="none" x="830.28369140625" y="665.5">Student</text></g></g><g transform="translate(-62,-398) scale(1,1)"><path fill="#C0C0C0" stroke="none" d="M 983 688 C 983 678.6111584 1005.6096176 671 1033.5 671 C 1061.3903824 671 1084 678.6111584 1084 688 C 1084 697.3888416 1061.3903824 705 1033.5 705 C 1005.6096176 705 983 697.3888416 983 688 Z" opacity="0.2"/></g><g transform="translate(-62,-398) scale(1,1)"><path fill="#ffffff" stroke="none" d="M 976 681 C 976 671.6111584 998.6096176 664 1026.5 664 C 1054.3903824 664 1077 671.6111584 1077 681 C 1077 690.3888416 1054.3903824 698 1026.5 698 C 998.6096176 698 976 690.3888416 976 681 Z"/></g><g transform="translate(-62,-398) scale(1,1)"><path fill="none" stroke="#000000" d="M 976 681 C 976 671.6111584 998.6096176 664 1026.5 664 C 1054.3903824 664 1077 671.6111584 1077 681 C 1077 690.3888416 1054.3903824 698 1026.5 698 C 998.6096176 698 976 690.3888416 976 681 Z" stroke-miterlimit="10"/></g><g transform="translate(-62,-398) scale(1,1)"><g><path fill="none" stroke="none"/><text fill="#000000" stroke="none" font-family="Arial" font-size="13px" font-style="normal" font-weight="bold" text-decoration="none" x="1002.29638671875" y="688">Register</text></g></g><g transform="translate(-62,-398) scale(1,1)"><path fill="none" stroke="#000000" d="M 882 640 L 975 666" stroke-miterlimit="10"/></g><g transform="translate(-62,-398) scale(1,1)"><path fill="none" stroke="#000000" d="M 964.0792225920046 667.3178090927812 L 975 666 L 966.3460124931627 659.2096759847925" stroke-miterlimit="10"/></g><g transform="translate(-62,-398) scale(1,1)"><path fill="#C0C0C0" stroke="none" d="M 663 1328 C 663 1318.6111584 696.8024976 1311 738.5 1311 C 780.1975024 1311 814 1318.6111584 814 1328 C 814 1337.3888416 780.1975024 1345 738.5 1345 C 696.8024976 1345 663 1337.3888416 663 1328 Z" opacity="0.2"/></g><g transform="translate(-62,-398) scale(1,1)"><path fill="#ffffff" stroke="none" d="M 656 1321 C 656 1311.6111584 689.8024976 1304 731.5 1304 C 773.1975024 1304 807 1311.6111584 807 1321 C 807 1330.3888416 773.1975024 1338 731.5 1338 C 689.8024976 1338 656 1330.3888416 656 1321 Z"/></g><g transform="translate(-62,-398) scale(1,1)"><path fill="none" stroke="#000000" d="M 656 1321 C 656 1311.6111584 689.8024976 1304 731.5 1304 C 773.1975024 1304 807 1311.6111584 807 1321 C 807 1330.3888416 773.1975024 1338 731.5 1338 C 689.8024976 1338 656 1330.3888416 656 1321 Z" stroke-miterlimit="10"/></g><g transform="translate(-62,-398) scale(1,1)"><g><path fill="none" stroke="none"/><text fill="#000000" stroke="none" font-family="Arial" font-size="13px" font-style="normal" font-weight="bold" text-decoration="none" x="684.908203125" y="1328">CRUD Interview</text></g></g><g transform="translate(-62,-398) scale(1,1)"><path fill="none" stroke="#000000" d="M 729 1303 L 699 1019" stroke-miterlimit="10" stroke-dasharray="3"/></g><g transform="translate(-62,-398) scale(1,1)"><path fill="none" stroke="#000000" d="M 704.2538087520608 1028.664237869422 L 699 1019 L 695.8813556631712 1029.5486519281076" stroke-miterlimit="10"/></g><g transform="translate(-62,-398) scale(1,1)"><g><path fill="none" stroke="none"/><text fill="#000000" stroke="none" font-family="Arial" font-size="13px" font-style="normal" font-weight="normal" text-decoration="none" x="657.5" y="1170.5">«extend»</text></g></g><g transform="translate(-62,-398) scale(1,1)"><path fill="#C0C0C0" stroke="none" d="M 631 832 C 631 822.6111584 672.1897984 815 723 815 C 773.8102016 815 815 822.6111584 815 832 C 815 841.3888416 773.8102016 849 723 849 C 672.1897984 849 631 841.3888416 631 832 Z" opacity="0.2"/></g><g transform="translate(-62,-398) scale(1,1)"><path fill="#ffffff" stroke="none" d="M 624 825 C 624 815.6111584 665.1897984 808 716 808 C 766.8102016 808 808 815.6111584 808 825 C 808 834.3888416 766.8102016 842 716 842 C 665.1897984 842 624 834.3888416 624 825 Z"/></g><g transform="translate(-62,-398) scale(1,1)"><path fill="none" stroke="#000000" d="M 624 825 C 624 815.6111584 665.1897984 808 716 808 C 766.8102016 808 808 815.6111584 808 825 C 808 834.3888416 766.8102016 842 716 842 C 665.1897984 842 624 834.3888416 624 825 Z" stroke-miterlimit="10"/></g><g transform="translate(-62,-398) scale(1,1)"><g><path fill="none" stroke="none"/><text fill="#000000" stroke="none" font-family="Arial" font-size="13px" font-style="normal" font-weight="bold" text-decoration="none" x="656.760498046875" y="832">CRUD Fee Payment</text></g></g><g transform="translate(-62,-398) scale(1,1)"><path fill="none" stroke="#000000" d="M 196 886 L 336 832 L 623 827" stroke-miterlimit="10"/></g><g transform="translate(-62,-398) scale(1,1)"><path fill="none" stroke="#000000" d="M 612.9121924590552 831.385902303615 L 623 827 L 612.7655416199852 822.968144141001" stroke-miterlimit="10"/></g><g transform="translate(-62,-398) scale(1,1)"><path fill="#C0C0C0" stroke="none" d="M 367 1280 C 367 1270.6111584 398.1162064 1263 436.5 1263 C 474.8837936 1263 506 1270.6111584 506 1280 C 506 1289.3888416 474.8837936 1297 436.5 1297 C 398.1162064 1297 367 1289.3888416 367 1280 Z" opacity="0.2"/></g><g transform="translate(-62,-398) scale(1,1)"><path fill="#ffffff" stroke="none" d="M 360 1273 C 360 1263.6111584 391.1162064 1256 429.5 1256 C 467.8837936 1256 499 1263.6111584 499 1273 C 499 1282.3888416 467.8837936 1290 429.5 1290 C 391.1162064 1290 360 1282.3888416 360 1273 Z"/></g><g transform="translate(-62,-398) scale(1,1)"><path fill="none" stroke="#000000" d="M 360 1273 C 360 1263.6111584 391.1162064 1256 429.5 1256 C 467.8837936 1256 499 1263.6111584 499 1273 C 499 1282.3888416 467.8837936 1290 429.5 1290 C 391.1162064 1290 360 1282.3888416 360 1273 Z" stroke-miterlimit="10"/></g><g transform="translate(-62,-398) scale(1,1)"><g><path fill="none" stroke="none"/><text fill="#000000" stroke="none" font-family="Arial" font-size="13px" font-style="normal" font-weight="bold" text-decoration="none" x="386.510498046875" y="1280">CRUD Student</text></g></g><g transform="translate(-62,-398) scale(1,1)"><path fill="#C0C0C0" stroke="none" d="M 543 1240 C 543 1230.6111584 574.340064 1223 613 1223 C 651.659936 1223 683 1230.6111584 683 1240 C 683 1249.3888416 651.659936 1257 613 1257 C 574.340064 1257 543 1249.3888416 543 1240 Z" opacity="0.2"/></g><g transform="translate(-62,-398) scale(1,1)"><path fill="#ffffff" stroke="none" d="M 536 1233 C 536 1223.6111584 567.340064 1216 606 1216 C 644.659936 1216 676 1223.6111584 676 1233 C 676 1242.3888416 644.659936 1250 606 1250 C 567.340064 1250 536 1242.3888416 536 1233 Z"/></g><g transform="translate(-62,-398) scale(1,1)"><path fill="none" stroke="#000000" d="M 536 1233 C 536 1223.6111584 567.340064 1216 606 1216 C 644.659936 1216 676 1223.6111584 676 1233 C 676 1242.3888416 644.659936 1250 606 1250 C 567.340064 1250 536 1242.3888416 536 1233 Z" stroke-miterlimit="10"/></g><g transform="translate(-62,-398) scale(1,1)"><g><path fill="none" stroke="none"/><text fill="#000000" stroke="none" font-family="Arial" font-size="13px" font-style="normal" font-weight="bold" text-decoration="none" x="563.60400390625" y="1240">Add to Trainee</text></g></g><g transform="translate(-62,-398) scale(1,1)"><path fill="none" stroke="#000000" d="M 535 1249 L 500 1257" stroke-miterlimit="10" stroke-dasharray="3"/></g><g transform="translate(-62,-398) scale(1,1)"><path fill="none" stroke="#000000" d="M 508.96918507607495 1250.6318197991015 L 500 1257 L 510.84515499288295 1258.8391881851367" stroke-miterlimit="10"/></g><g transform="translate(-62,-398) scale(1,1)"><g><path fill="none" stroke="none"/><text fill="#000000" stroke="none" font-family="Arial" font-size="13px" font-style="normal" font-weight="normal" text-decoration="none" x="506.5" y="1268.5">«extend»</text></g></g><g transform="translate(-62,-398) scale(1,1)"><path fill="#C0C0C0" stroke="none" d="M 895 920 C 895 910.6111584 929.2502128 903 971.5 903 C 1013.7497872 903 1048 910.6111584 1048 920 C 1048 929.3888416 1013.7497872 937 971.5 937 C 929.2502128 937 895 929.3888416 895 920 Z" opacity="0.2"/></g><g transform="translate(-62,-398) scale(1,1)"><path fill="#ffffff" stroke="none" d="M 888 913 C 888 903.6111584 922.2502128 896 964.5 896 C 1006.7497872 896 1041 903.6111584 1041 913 C 1041 922.3888416 1006.7497872 930 964.5 930 C 922.2502128 930 888 922.3888416 888 913 Z"/></g><g transform="translate(-62,-398) scale(1,1)"><path fill="none" stroke="#000000" d="M 888 913 C 888 903.6111584 922.2502128 896 964.5 896 C 1006.7497872 896 1041 903.6111584 1041 913 C 1041 922.3888416 1006.7497872 930 964.5 930 C 922.2502128 930 888 922.3888416 888 913 Z" stroke-miterlimit="10"/></g><g transform="translate(-62,-398) scale(1,1)"><g><path fill="none" stroke="none"/><text fill="#000000" stroke="none" font-family="Arial" font-size="13px" font-style="normal" font-weight="bold" text-decoration="none" x="917.181396484375" y="920">CRUD Diligence</text></g></g><g transform="translate(-62,-398) scale(1,1)"><path fill="none" stroke="#000000" d="M 909 931 L 752 983" stroke-miterlimit="10" stroke-dasharray="3"/></g><g transform="translate(-62,-398) scale(1,1)"><path fill="none" stroke="#000000" d="M 760.3237588232278 975.808683079384 L 752 983 L 762.9708152690948 983.8007573486366" stroke-miterlimit="10"/></g><g transform="translate(-62,-398) scale(1,1)"><g><path fill="none" stroke="none"/><text fill="#000000" stroke="none" font-family="Arial" font-size="13px" font-style="normal" font-weight="normal" text-decoration="none" x="812.5" y="991.5">«extend»</text></g></g><g transform="translate(-62,-398) scale(1,1)"><path fill="#C0C0C0" stroke="none" d="M 567 944 C 567 934.6111584 595.6537728 927 631 927 C 666.3462272 927 695 934.6111584 695 944 C 695 953.3888416 666.3462272 961 631 961 C 595.6537728 961 567 953.3888416 567 944 Z" opacity="0.2"/></g><g transform="translate(-62,-398) scale(1,1)"><path fill="#ffffff" stroke="none" d="M 560 937 C 560 927.6111584 588.6537728 920 624 920 C 659.3462272 920 688 927.6111584 688 937 C 688 946.3888416 659.3462272 954 624 954 C 588.6537728 954 560 946.3888416 560 937 Z"/></g><g transform="translate(-62,-398) scale(1,1)"><path fill="none" stroke="#000000" d="M 560 937 C 560 927.6111584 588.6537728 920 624 920 C 659.3462272 920 688 927.6111584 688 937 C 688 946.3888416 659.3462272 954 624 954 C 588.6537728 954 560 946.3888416 560 937 Z" stroke-miterlimit="10"/></g><g transform="translate(-62,-398) scale(1,1)"><g><path fill="none" stroke="none"/><text fill="#000000" stroke="none" font-family="Arial" font-size="13px" font-style="normal" font-weight="bold" text-decoration="none" x="584.99365234375" y="944">CRUD Admin</text></g></g><g transform="translate(-62,-398) scale(1,1)"><path fill="none" stroke="#000000" d="M 196 918 L 352 936 L 559 937" stroke-miterlimit="10"/></g><g transform="translate(-62,-398) scale(1,1)"><path fill="none" stroke="#000000" d="M 548.817108130094 941.1603741617554 L 559 937 L 548.8577793246495 932.7414368887506" stroke-miterlimit="10"/></g><g transform="translate(-62,-398) scale(1,1)"><path fill="none" stroke="#000000" d="M 874 517 L 1087 558" stroke-miterlimit="10"/></g><g transform="translate(-62,-398) scale(1,1)"><path fill="none" stroke="#000000" d="M 1076.2248458642443 560.2127027253354 L 1087 558 L 1077.8161983404423 551.9454325441114" stroke-miterlimit="10"/></g><g transform="translate(-62,-398) scale(1,1)"><path fill="none" stroke="#000000" d="M 159 952 L 320 1208 L 399 1255" stroke-miterlimit="10"/></g><g transform="translate(-62,-398) scale(1,1)"><path fill="none" stroke="#000000" d="M 388.1138338442065 1253.4215873706612 L 399 1255 L 392.41842436383087 1246.186211816399" stroke-miterlimit="10"/></g></g></svg>